<?xml version="1.0" encoding="UTF-8"?>
<svg version="1.1" xmlns="http://www.w3.org/2000/svg" width="148" height="148">
<path d="M0 0 C17.5307254 12.32558714 29.29473429 29.81520255 33 51 C34.52355273 72.80046354 31.54727988 92.23525271 17.625 109.875 C5.11725768 124.25679799 -11.98898891 135.81116416 -31.53271484 137.17700195 C-55.3443622 137.72182634 -74.95749633 133.92381107 -93 117 C-106.77943597 103.59164399 -114.94378055 86.01961683 -115.29272461 66.78857422 C-115.43625628 43.82705125 -109.18679353 25.57941697 -92.8828125 8.82421875 C-67.52623364 -15.09270087 -29.4929707 -17.75883153 0 0 Z " fill="#FDFCFA" transform="translate(115,11)"/>
<path d="M0 0 C17.5307254 12.32558714 29.29473429 29.81520255 33 51 C34.52355273 72.80046354 31.54727988 92.23525271 17.625 109.875 C5.11725768 124.25679799 -11.98898891 135.81116416 -31.53271484 137.17700195 C-55.3443622 137.72182634 -74.95749633 133.92381107 -93 117 C-106.77943597 103.59164399 -114.94378055 86.01961683 -115.29272461 66.78857422 C-115.43625628 43.82705125 -109.18679353 25.57941697 -92.8828125 8.82421875 C-67.52623364 -15.09270087 -29.4929707 -17.75883153 0 0 Z M-48.0703125 -2.95703125 C-64.61623817 -2.17416776 -79.74957104 5.93488481 -91 18 C-98.78382043 27.48029411 -104.58412013 36.78981161 -106.60546875 49.03125 C-107 51 -107 51 -108 52 C-109.05671209 64.59892319 -109.07797543 77.27879507 -104 89 C-103.69191406 89.76828125 -103.38382813 90.5365625 -103.06640625 91.328125 C-102.41852455 92.90288052 -101.71813276 94.45601458 -101 96 C-100.34 96 -99.68 96 -99 96 C-98.79375 96.66 -98.5875 97.32 -98.375 98 C-95.52320828 104.22209102 -90.98805507 109.36823458 -86 114 C-85.12214844 114.83337891 -85.12214844 114.83337891 -84.2265625 115.68359375 C-70.66944335 128.14221115 -54.95663541 131.35951114 -37 131 C-35.93136719 131.00644531 -34.86273438 131.01289063 -33.76171875 131.01953125 C-16.40931601 130.56573242 -1.57273201 120.24314396 10.1171875 108.11328125 C14.34681774 103.63750038 14.34681774 103.63750038 16 98 C16.66 98 17.32 98 18 98 C18.79441072 96.12616097 19.58539974 94.25087114 20.375 92.375 C21.03628906 90.80878906 21.03628906 90.80878906 21.7109375 89.2109375 C24.31071166 82.73513642 25.40899026 77.30969677 25.6875 70.375 C25.72512451 69.48490234 25.76274902 68.59480469 25.80151367 67.67773438 C26.43810661 50.03913919 23.20372977 33.99418511 10.9375 20.53125 C5.50391793 14.83506071 0.06985412 9.6016238 -7 6 C-7.66 6 -8.32 6 -9 6 C-9 5.34 -9 4.68 -9 4 C-22.01023567 -1.25220608 -33.96715468 -3.15440369 -48.0703125 -2.95703125 Z " fill="#694991" transform="translate(115,11)"/>
<path d="M0 0 C0 0.66 0 1.32 0 2 C0.66 2.20625 1.32 2.4125 2 2.625 C16.43854223 9.24266519 25.70350488 22.46908876 32.125 36.44921875 C38.61008208 54.31437275 35.17399895 75.10441723 28 92 C27.67 92.66 27.34 93.32 27 94 C26.34 94 25.68 94 25 94 C24.63261719 95.08667969 24.63261719 95.08667969 24.2578125 96.1953125 C21.96550696 101.30672671 17.85657621 105.01173582 14 109 C13.10474609 109.95132813 13.10474609 109.95132813 12.19140625 110.921875 C5.93582356 116.99633837 -2.14719753 120.43242534 -10 124 C-10.86367187 124.39316406 -11.72734375 124.78632813 -12.6171875 125.19140625 C-17.55156515 126.86585899 -22.83261829 126.76460951 -28 127 C-29.16789062 127.05414063 -30.33578125 127.10828125 -31.5390625 127.1640625 C-47.86094333 127.56215715 -62.59046629 122.64695118 -75 112 C-75.81082031 111.39285156 -76.62164062 110.78570312 -77.45703125 110.16015625 C-80.36267067 107.69192492 -82.47376755 105.05534558 -84.75 102 C-85.52859375 100.96875 -86.3071875 99.9375 -87.109375 98.875 C-88.72438914 96.41911073 -89.58755143 94.85964343 -90 92 C-90.66 92 -91.32 92 -92 92 C-92.98188561 89.41767086 -93.96059589 86.83421317 -94.9375 84.25 C-95.21529297 83.52039063 -95.49308594 82.79078125 -95.77929688 82.0390625 C-96.04677734 81.33007812 -96.31425781 80.62109375 -96.58984375 79.890625 C-96.83597412 79.24125977 -97.08210449 78.59189453 -97.33569336 77.92285156 C-99.37343056 72.02457218 -99.18380177 66.38203315 -99.1875 60.1875 C-99.19974609 59.11951172 -99.21199219 58.05152344 -99.22460938 56.95117188 C-99.23527789 51.20084021 -98.93317843 46.41980381 -97 41 C-96.72800781 40.10796875 -96.45601562 39.2159375 -96.17578125 38.296875 C-90.2845175 20.91631406 -78.09701889 7.29958931 -61.75 -0.875 C-42.70289222 -10.13999587 -19.05582957 -8.89272047 0 0 Z M-55 6 C-56.0725 6.226875 -57.145 6.45375 -58.25 6.6875 C-72.12384058 11.5433442 -81.15345783 23.54464756 -87.43823242 36.203125 C-91.13089487 43.98081341 -92.32299686 50.87861861 -92.25 59.4375 C-92.25773437 60.34048828 -92.26546875 61.24347656 -92.2734375 62.17382812 C-92.25718073 67.78647889 -91.58725813 72.61465991 -90 78 C-89.34 78 -88.68 78 -88 78 C-87.90847656 79.03382812 -87.81695312 80.06765625 -87.72265625 81.1328125 C-85.39478425 93.5900735 -73.28577937 104.77065493 -63.296875 111.78515625 C-60.84374638 113.31169488 -60.84374638 113.31169488 -57 113 C-57 113.66 -57 114.32 -57 115 C-55.29422658 115.65256456 -53.58523911 116.29673041 -51.875 116.9375 C-50.92367187 117.29714844 -49.97234375 117.65679687 -48.9921875 118.02734375 C-33.6525467 123.01372829 -19.72485832 118.75512172 -5 114 C-5 113.34 -5 112.68 -5 112 C-4.11957031 111.74863281 -3.23914063 111.49726562 -2.33203125 111.23828125 C9.37543301 106.88744166 17.55422552 95.49814006 22.59765625 84.5234375 C23.84096203 81.36986308 24.97640431 78.23110929 26 75 C26.54720703 73.36224609 26.54720703 73.36224609 27.10546875 71.69140625 C29.86823564 60.29046867 28.94543831 47.6127263 24 37 C23.56429687 36.05769531 23.12859375 35.11539063 22.6796875 34.14453125 C17.07579942 23.04393328 9.25471122 15.83128714 -1 9 C-2.0725 8.2575 -3.145 7.515 -4.25 6.75 C-19.85756468 -1.5740345 -39.18984139 -1.1593171 -55 6 Z " fill="#F5B420" transform="translate(106,15)"/>
<path d="M0 0 C2.46800047 1.15173355 4.04783565 2.04783565 6 4 C6.4140625 6.09375 6.4140625 6.09375 6.625 8.5 C6.69976562 9.2940625 6.77453125 10.088125 6.8515625 10.90625 C6.94812655 12.2683114 7 13.63451992 7 15 C7.66 15.99 8.32 16.98 9 18 C9.25760279 20.69452521 9.08900053 23.28548375 9 26 C9.66 26 10.32 26 11 26 C11.21914062 26.83402344 11.43828125 27.66804688 11.6640625 28.52734375 C14.00357641 36.82976506 16.8292773 43.8292773 23 50 C23 50.99 23 51.98 23 53 C23.78375 53.12375 24.5675 53.2475 25.375 53.375 C28 54 28 54 30 56 C29.44444444 60.55555556 29.44444444 60.55555556 28 62 C26.33382885 62.04063832 24.66611905 62.042721 23 62 C22.74605469 61.38511719 22.49210937 60.77023438 22.23046875 60.13671875 C21.88628906 59.32847656 21.54210937 58.52023438 21.1875 57.6875 C20.85105469 56.88699219 20.51460937 56.08648437 20.16796875 55.26171875 C18.97554124 52.6717106 18.97554124 52.6717106 16 50 C16 53.63 16 57.26 16 61 C16.66 61 17.32 61 18 61 C18 61.66 18 62.32 18 63 C17.34 63 16.68 63 16 63 C15.7525 63.61875 15.505 64.2375 15.25 64.875 C13.79371361 67.35068687 12.62187494 67.95125002 10 69 C10 69.66 10 70.32 10 71 C4.48605289 72.80047253 -0.81407992 74.30704414 -6.4375 72 C-6.953125 71.67 -7.46875 71.34 -8 71 C-8 70.34 -8 69.68 -8 69 C-8.78375 68.79375 -9.5675 68.5875 -10.375 68.375 C-13 67 -13 67 -14.3125 63.875 C-14.539375 62.92625 -14.76625 61.9775 -15 61 C-14.34 61 -13.68 61 -13 61 C-13 57.04 -13 53.08 -13 49 C-15.94729537 51.63106761 -15.94729537 51.63106761 -17 54 C-17.66 54 -18.32 54 -19 54 C-18.95875 54.94875 -18.9175 55.8975 -18.875 56.875 C-19 60 -19 60 -21 62 C-23.5 62.3125 -23.5 62.3125 -26 62 C-28 59 -28 59 -27.75 56.9375 C-27 55 -27 55 -25 53 C-23.68 53 -22.36 53 -21 53 C-20.896875 52.443125 -20.79375 51.88625 -20.6875 51.3125 C-19.85988599 48.52870742 -18.62262248 46.40148127 -17 44 C-16.01 43.505 -16.01 43.505 -15 43 C-14.67 42.01 -14.34 41.02 -14 40 C-13.34 40 -12.68 40 -12 40 C-11.896875 39.01 -11.79375 38.02 -11.6875 37 C-11.18953344 33.45732361 -10.08547612 30.42736286 -8.7578125 27.12109375 C-7.69039505 24.13342533 -7.10611986 21.09483545 -6.52734375 17.98046875 C-6 16 -6 16 -4 13 C-4.185625 12.236875 -4.37125 11.47375 -4.5625 10.6875 C-5.16684468 6.97509697 -3.89814122 5.16356869 -2 2 C-1.34 1.34 -0.68 0.68 0 0 Z " fill="#988165" transform="translate(73,21)"/>
<path d="M0 0 C2.46800047 1.15173355 4.04783565 2.04783565 6 4 C6.4140625 6.09375 6.4140625 6.09375 6.625 8.5 C6.69976562 9.2940625 6.77453125 10.088125 6.8515625 10.90625 C6.94812655 12.2683114 7 13.63451992 7 15 C7.99 16.485 7.99 16.485 9 18 C9.25760279 20.69452521 9.08900053 23.28548375 9 26 C9.66 26 10.32 26 11 26 C13.28571429 34.42857143 13.28571429 34.42857143 13 39 C12.34 39 11.68 39 11 39 C11 39.99 11 40.98 11 42 C11.66 42 12.32 42 13 42 C13 42.66 13 43.32 13 44 C12.236875 43.690625 11.47375 43.38125 10.6875 43.0625 C5.60949053 41.05491486 1.4311483 40.42628715 -4 41 C-6.81780534 42.38885248 -6.81780534 42.38885248 -9 44 C-9.99 44 -10.98 44 -12 44 C-13.68581306 39.94383161 -12.12249278 36.69399819 -10.6875 32.8125 C-9.15937285 28.49717342 -7.71631201 24.24683517 -6.8125 19.75 C-6 16 -6 16 -4 13 C-4.185625 12.236875 -4.37125 11.47375 -4.5625 10.6875 C-5.16684468 6.97509697 -3.89814122 5.16356869 -2 2 C-1.34 1.34 -0.68 0.68 0 0 Z " fill="#5C5C5C" transform="translate(73,21)"/>
<path d="M0 0 C3.48242391 2.52646441 4.65226822 3.95680465 6 8 C6.12781786 10.67394964 6.04391871 13.32095857 6 16 C5.34 16 4.68 16 4 16 C3.731875 16.639375 3.46375 17.27875 3.1875 17.9375 C2 20 2 20 -1 21 C-1 21.66 -1 22.32 -1 23 C-6.37140063 23.27312207 -9.58683426 23.40444214 -14 20 C-14.52980469 19.59136719 -15.05960937 19.18273437 -15.60546875 18.76171875 C-18.15196351 15.54471837 -17.52407581 11.83523654 -17.390625 7.8984375 C-17 5 -17 5 -15.25 1.75 C-10.26020232 -0.93681414 -5.53679646 -0.97257697 0 0 Z " fill="#EEEDF1" transform="translate(80,65)"/>
<path d="M0 0 C6.11673092 0.10232045 11.6991377 1.29065366 17.08520508 4.32348633 C19.08520508 7.32348633 19.08520508 7.32348633 19.08520508 9.32348633 C23.12041105 7.73385973 27.1033179 6.04116315 31.08520508 4.32348633 C28.44520508 4.98348633 25.80520508 5.64348633 23.08520508 6.32348633 C25.95095287 2.02486464 29.12742237 1.33173106 34.08520508 0.32348633 C44.93945218 -0.39176464 44.93945218 -0.39176464 50.08520508 1.32348633 C51.27270508 4.38598633 51.27270508 4.38598633 52.08520508 7.32348633 C51.49094727 7.30253906 50.89668945 7.2815918 50.28442383 7.26000977 C47.55152803 7.17606779 44.81890451 7.12458351 42.08520508 7.07348633 C41.15063477 7.0399707 40.21606445 7.00645508 39.25317383 6.97192383 C33.57607111 6.89252379 29.68805606 7.45944345 24.82080078 10.46948242 C21.77771352 11.9668406 19.22758874 11.18610145 16.08520508 10.32348633 C15.09520508 9.66348633 14.10520508 9.00348633 13.08520508 8.32348633 C8.26825507 6.88112277 3.25123977 7.21272313 -1.72729492 7.26098633 C-3.05277344 7.26775391 -3.05277344 7.26775391 -4.4050293 7.2746582 C-6.57498051 7.28638767 -8.74489664 7.30432138 -10.91479492 7.32348633 C-9.70659389 -0.78872057 -7.96891304 0.04292054 0 0 Z " fill="#9381B5" transform="translate(53.914794921875,94.676513671875)"/>
<path d="M0 0 C5.81175006 4.20900656 10.97163541 8.89096646 16 14 C15.67 14.66 15.34 15.32 15 16 C14.40574219 15.43152344 13.81148438 14.86304687 13.19921875 14.27734375 C3.39695923 5.14584538 -6.33069417 -0.65763202 -19 -5 C-19.97324219 -5.35449219 -20.94648437 -5.70898438 -21.94921875 -6.07421875 C-29.83014367 -8.46574142 -37.85920971 -8.19004974 -46.00585938 -8.02832031 C-47.76937532 -8.00327528 -49.53342382 -8.02543594 -51.296875 -8.0546875 C-64.77713771 -7.81519045 -78.148319 -0.94861025 -88 8 C-88.680625 8.54140625 -89.36125 9.0828125 -90.0625 9.640625 C-96.0421368 14.48775483 -101.5334276 20.6002828 -104 28 C-104.66 28 -105.32 28 -106 28 C-102.11268168 14.11962779 -88.42198444 3.92058011 -76.5546875 -3.171875 C-52.27086273 -15.66069917 -23.19106329 -14.02441816 0 0 Z " fill="#EEECF3" transform="translate(115,11)"/>
<path d="M0 0 C2.59269983 0.01747888 5.0525154 0.13768592 7.625 0.375 C8.33140625 0.43171875 9.0378125 0.4884375 9.765625 0.546875 C11.51121361 0.68840921 13.25573673 0.84297387 15 1 C15 2.65 15 4.3 15 6 C15.66 6 16.32 6 17 6 C17 4.35 17 2.7 17 1 C17.66 1 18.32 1 19 1 C19 2.65 19 4.3 19 6 C18.2575 6.144375 17.515 6.28875 16.75 6.4375 C14.47972261 6.90187492 12.24240521 7.41863569 10 8 C11.32 8.66 12.64 9.32 14 10 C13.67 10.66 13.34 11.32 13 12 C14.65 11.34 16.3 10.68 18 10 C18.33 10.99 18.66 11.98 19 13 C12.28837062 13.88021369 5.76594019 14.11381955 -1 14 C-1.88002354 9.9096506 -2.23758973 6.19741858 -2 2 C-1.34 1.34 -0.68 0.68 0 0 Z " fill="#C7C7C6" transform="translate(44,108)"/>
<path d="M0 0 C0.98484375 0.00902344 1.9696875 0.01804687 2.984375 0.02734375 C4.10585937 0.04474609 4.10585937 0.04474609 5.25 0.0625 C5.25 1.0525 5.25 2.0425 5.25 3.0625 C4.32058594 3.11148438 3.39117187 3.16046875 2.43359375 3.2109375 C-6.82660933 3.75927146 -6.82660933 3.75927146 -15.75 6.0625 C-15.75 7.0525 -15.75 8.0425 -15.75 9.0625 C-14.98429687 8.73765625 -14.98429687 8.73765625 -14.203125 8.40625 C-7.63851753 5.89214501 -1.72510267 5.74384049 5.25 6.0625 C5.25 6.3925 5.25 6.7225 5.25 7.0625 C4.28320312 7.14886719 3.31640625 7.23523438 2.3203125 7.32421875 C-5.27116287 8.14349678 -11.10023181 9.08578908 -17.69921875 13.234375 C-19.75 14.0625 -19.75 14.0625 -22.01953125 13.203125 C-22.59058594 12.82671875 -23.16164063 12.4503125 -23.75 12.0625 C-23.75 11.0725 -23.75 10.0825 -23.75 9.0625 C-31.76422458 5.60947738 -39.04468814 4.33929847 -47.75 4.0625 C-47.75 3.0725 -47.75 2.0825 -47.75 1.0625 C-31.38826535 0.14900365 -31.38826535 0.14900365 -23.765625 5.06640625 C-21.81945389 6.25338196 -21.81945389 6.25338196 -19.734375 5.83984375 C-17.65907268 5.02688083 -15.71836896 4.10819601 -13.75 3.0625 C-9.03454727 0.55741574 -5.34884532 -0.06367673 0 0 Z " fill="#DDD3D0" transform="translate(94.75,90.9375)"/>
<path d="M0 0 C6.98629919 -0.50604984 11.20200116 -0.0333905 17 4 C17 4.99 17 5.98 17 7 C16.34 7 15.68 7 15 7 C15 7.99 15 8.98 15 10 C15.66 10 16.32 10 17 10 C17 10.66 17 11.32 17 12 C16.236875 11.690625 15.47375 11.38125 14.6875 11.0625 C9.60949053 9.05491486 5.4311483 8.42628715 0 9 C-2.81780534 10.38885248 -2.81780534 10.38885248 -5 12 C-5.99 12 -6.98 12 -8 12 C-8.33 10.68 -8.66 9.36 -9 8 C-7.68 8.33 -6.36 8.66 -5 9 C-5 8.34 -5 7.68 -5 7 C-5.66 7 -6.32 7 -7 7 C-6.67 5.68 -6.34 4.36 -6 3 C-4.02 2.67 -2.04 2.34 0 2 C0 1.34 0 0.68 0 0 Z " fill="#585856" transform="translate(69,53)"/>
<path d="M0 0 C2.46800047 1.15173355 4.04783565 2.04783565 6 4 C6.4140625 6.09375 6.4140625 6.09375 6.625 8.5 C6.69976562 9.2940625 6.77453125 10.088125 6.8515625 10.90625 C6.94812655 12.2683114 7 13.63451992 7 15 C7.99 16.485 7.99 16.485 9 18 C8.625 20.1875 8.625 20.1875 8 22 C6.68 22 5.36 22 4 22 C3.67 21.34 3.34 20.68 3 20 C2.01 20.33 1.02 20.66 0 21 C-0.33 18.69 -0.66 16.38 -1 14 C-1.99 14 -2.98 14 -4 14 C-4.98685845 10.231995 -5.1687413 8.41783561 -3.6875 4.75 C-2 2 -2 2 0 0 Z " fill="#848484" transform="translate(73,21)"/>
<path d="M0 0 C6.0546875 -0.1953125 6.0546875 -0.1953125 8 0 C8.66 0.66 9.32 1.32 10 2 C9.6730244 4.61580479 9.17960932 6.64078137 8 9 C8.763125 8.979375 9.52625 8.95875 10.3125 8.9375 C13 9 13 9 16 10 C16 10.99 16 11.98 16 13 C13.79245484 13.19656224 11.58390461 13.38185459 9.375 13.5625 C8.14523438 13.66691406 6.91546875 13.77132812 5.6484375 13.87890625 C2.24372538 13.99191061 -0.67558398 13.69045563 -4 13 C-4 11.68 -4 10.36 -4 9 C-2.68 8.67 -1.36 8.34 0 8 C-0.33 7.34 -0.66 6.68 -1 6 C-1.99 6.33 -2.98 6.66 -4 7 C-4 5.02 -4 3.04 -4 1 C-3.01 1.33 -2.02 1.66 -1 2 C-0.67 1.34 -0.34 0.68 0 0 Z " fill="#C5BBD6" transform="translate(68,108)"/>
<path d="M0 0 C4.40617281 2.16303029 7.1644597 4.41114924 9 9 C9.71062194 13.73747957 9.47089401 17.05821199 7.3125 21.375 C4.40158786 24.67927865 2.33639371 26.69358771 -2.14453125 27.28125 C-8.24016431 27.52386226 -11.41427085 26.15236672 -16.09765625 22.25390625 C-19.1112259 18.68341408 -18.6635431 15.50117749 -18.53125 10.9921875 C-17.72697312 6.46221625 -15.53669398 3.83118767 -12 1 C-8.28763586 -0.85618207 -4.05156912 -0.44809981 0 0 Z M-14.25 3.75 C-16.93681414 8.73979768 -16.97257697 13.46320354 -16 19 C-13.47353559 22.48242391 -12.04319535 23.65226822 -8 25 C-6.60560336 25.06665376 -5.20830125 25.08538199 -3.8125 25.0625 C-2.554375 25.041875 -1.29625 25.02125 0 25 C0 24.34 0 23.68 0 23 C0.639375 22.731875 1.27875 22.46375 1.9375 22.1875 C4.33131686 21.11332248 4.33131686 21.11332248 5 18 C5.66 18 6.32 18 7 18 C7.27312207 12.62859937 7.40444214 9.41316574 4 5 C3.59136719 4.47019531 3.18273437 3.94039063 2.76171875 3.39453125 C-0.45528163 0.84803649 -4.16476346 1.47592419 -8.1015625 1.609375 C-11.18051188 1.85107298 -11.18051188 1.85107298 -14.25 3.75 Z " fill="#786478" transform="translate(79,63)"/>
<path d="M0 0 C1.32 0 2.64 0 4 0 C4 0.66 4 1.32 4 2 C4.66 2 5.32 2 6 2 C6 1.34 6 0.68 6 0 C7.66611905 -0.042721 9.33382885 -0.04063832 11 0 C12 1 12 1 12.0625 4.0625 C12.041875 5.031875 12.02125 6.00125 12 7 C16.40914783 8.10228696 20.48382401 8.07654536 25 8 C25 9.32 25 10.64 25 12 C18.67370431 12.90375653 13.32629569 12.90375653 7 12 C7 10.35 7 8.7 7 7 C4.36 6.67 1.72 6.34 -1 6 C-0.67 4.02 -0.34 2.04 0 0 Z " fill="#BBBBBB" transform="translate(80,109)"/>
<path d="M0 0 C0.66 0.33 1.32 0.66 2 1 C1.67 4.63 1.34 8.26 1 12 C1.66 12 2.32 12 3 12 C3 12.66 3 13.32 3 14 C2.34 14 1.68 14 1 14 C0.7525 14.61875 0.505 15.2375 0.25 15.875 C-1.20628639 18.35068687 -2.37812506 18.95125002 -5 20 C-5 20.66 -5 21.32 -5 22 C-10.51394711 23.80047253 -15.81407992 25.30704414 -21.4375 23 C-21.953125 22.67 -22.46875 22.34 -23 22 C-23 21.34 -23 20.68 -23 20 C-24.175625 19.690625 -24.175625 19.690625 -25.375 19.375 C-28 18 -28 18 -29.3125 14.875 C-29.539375 13.92625 -29.76625 12.9775 -30 12 C-29.34 12 -28.68 12 -28 12 C-27.67 11.34 -27.34 10.68 -27 10 C-26.566875 10.763125 -26.13375 11.52625 -25.6875 12.3125 C-23.40963264 15.94021468 -22.09300798 17.63566401 -18 19 C-13.7517325 19.41368897 -10.09916203 19.45400171 -6.125 17.8125 C-1.729588 14.06347212 -0.84088184 10.82598568 -0.3125 5.1875 C-0.19605674 3.45911665 -0.08786703 1.73007151 0 0 Z " fill="#C7BBA1" transform="translate(88,70)"/>
<path d="M0 0 C2.806686 2.3856831 4.2783392 5.17880561 6.015625 8.359375 C6.98673633 10.12821545 6.98673633 10.12821545 8.75 11.75 C10 13 10 13 10 16 C10.78375 16.12375 11.5675 16.2475 12.375 16.375 C15 17 15 17 17 19 C16.44444444 23.55555556 16.44444444 23.55555556 15 25 C13.33382885 25.04063832 11.66611905 25.042721 10 25 C9.76925781 24.40832031 9.53851563 23.81664063 9.30078125 23.20703125 C7.18868991 18.08959256 5.07489319 14.84851023 1 11 C1 10.01 1 9.02 1 8 C0.34 7.67 -0.32 7.34 -1 7 C-0.67 6.34 -0.34 5.68 0 5 C-0.66 5 -1.32 5 -2 5 C-2 4.01 -2 3.02 -2 2 C-1.34 2 -0.68 2 0 2 C0 1.34 0 0.68 0 0 Z " fill="#9A9A9A" transform="translate(86,58)"/>
<path d="M0 0 C1.1875 3.0625 1.1875 3.0625 2 6 C1.39003174 5.98952637 0.78006348 5.97905273 0.15161133 5.96826172 C-2.62805007 5.92653379 -5.40764539 5.90062078 -8.1875 5.875 C-9.14720703 5.85824219 -10.10691406 5.84148437 -11.09570312 5.82421875 C-12.02705078 5.81777344 -12.95839844 5.81132813 -13.91796875 5.8046875 C-14.77156982 5.79421387 -15.6251709 5.78374023 -16.50463867 5.77294922 C-19.08500577 5.88494596 -19.08500577 5.88494596 -21.63012695 7.07470703 C-24 8 -24 8 -27 7 C-24.36 5.68 -21.72 4.36 -19 3 C-21.64 3.66 -24.28 4.32 -27 5 C-21.81189914 -2.78215128 -8.1269915 -2.70899717 0 0 Z " fill="#8370AC" transform="translate(104,96)"/>
<path d="M0 0 C5.3392693 3.9630204 10.11563995 8.53634869 14.89453125 13.1484375 C14.56453125 13.8084375 14.23453125 14.4684375 13.89453125 15.1484375 C13.30027344 14.57996094 12.70601563 14.01148437 12.09375 13.42578125 C2.29149048 4.29428288 -7.43616292 -1.50919452 -20.10546875 -5.8515625 C-21.56533203 -6.38330078 -21.56533203 -6.38330078 -23.0546875 -6.92578125 C-30.47607469 -9.17785393 -37.8644485 -8.97330331 -45.54296875 -8.9140625 C-46.65607422 -8.90955078 -47.76917969 -8.90503906 -48.91601562 -8.90039062 C-51.64588976 -8.88867443 -54.37565049 -8.87226949 -57.10546875 -8.8515625 C-57.10546875 -9.1815625 -57.10546875 -9.5115625 -57.10546875 -9.8515625 C-38.25422514 -14.76074052 -16.01998731 -10.49664404 0 0 Z " fill="#CFC6DD" transform="translate(116.10546875,11.8515625)"/>
<path d="M0 0 C4.95 0.33 9.9 0.66 15 1 C15 2.65 15 4.3 15 6 C15.66 6 16.32 6 17 6 C17 4.35 17 2.7 17 1 C17.66 1 18.32 1 19 1 C19 2.65 19 4.3 19 6 C14.71702469 7.05619003 10.57014354 7.11702092 6.1875 7.0625 C5.49462891 7.05798828 4.80175781 7.05347656 4.08789062 7.04882812 C2.39188932 7.03713156 0.69593297 7.01919924 -1 7 C-1 4 -1 4 0 0 Z " fill="#9A87B9" transform="translate(44,108)"/>
<path d="M0 0 C1.4540625 0.0309375 1.4540625 0.0309375 2.9375 0.0625 C3.2675 1.3825 3.5975 2.7025 3.9375 4.0625 C2.2875 3.7325 0.6375 3.4025 -1.0625 3.0625 C-1.0625 3.7225 -1.0625 4.3825 -1.0625 5.0625 C-0.258125 5.289375 0.54625 5.51625 1.375 5.75 C3.9375 7.0625 3.9375 7.0625 4.875 9.5625 C4.895625 10.3875 4.91625 11.2125 4.9375 12.0625 C2.9375 14.0625 2.9375 14.0625 -0.1875 14.1875 C-1.13625 14.14625 -2.085 14.105 -3.0625 14.0625 C-3.7225 12.7425 -4.3825 11.4225 -5.0625 10.0625 C-2.0925 10.5575 -2.0925 10.5575 0.9375 11.0625 C0.9375 10.4025 0.9375 9.7425 0.9375 9.0625 C0.31875 8.93875 -0.3 8.815 -0.9375 8.6875 C-3.0625 8.0625 -3.0625 8.0625 -5.0625 6.0625 C-4.33395709 0.0884481 -4.33395709 0.0884481 0 0 Z " fill="#414390" transform="translate(74.0625,68.9375)"/>
<path d="M0 0 C2.29633824 3.44450737 2.54016485 5.93812283 3 10 C2.05125 9.525625 1.1025 9.05125 0.125 8.5625 C-4.4465467 6.57242218 -9.06888627 6.28773098 -14 6 C-14 6.66 -14 7.32 -14 8 C-15.98 8.33 -17.96 8.66 -20 9 C-20.33 10.32 -20.66 11.64 -21 13 C-20.34 13 -19.68 13 -19 13 C-19 13.66 -19 14.32 -19 15 C-19.99 14.67 -20.98 14.34 -22 14 C-21.25 7.375 -21.25 7.375 -19 4 C-19 4.99 -19 5.98 -19 7 C-18.34 7 -17.68 7 -17 7 C-17 6.34 -17 5.68 -17 5 C-11.76655404 3.25551801 -6.12042565 3.32146379 -0.875 5 C-0.25625 5.33 0.3625 5.66 1 6 C0.67 4.02 0.34 2.04 0 0 Z " fill="#ACACAC" transform="translate(83,47)"/>
<path d="M0 0 C0.33 0 0.66 0 1 0 C1.02578125 0.67546875 1.0515625 1.3509375 1.078125 2.046875 C1.40996958 7.49318203 1.40996958 7.49318203 3.375 12.5 C7.60304382 14.91602504 12.21699393 15.37326127 17 16 C17 15.34 17 14.68 17 14 C18.95927063 12.2856382 20.95880212 10.61594832 23 9 C23.33 9.99 23.66 10.98 24 12 C18.394357 17.79894103 18.394357 17.79894103 14.9140625 18.30078125 C10.08026967 18.32552763 6.91580621 18.13264496 3 15 C2.21625 14.505 1.4325 14.01 0.625 13.5 C-2.09677448 9.31265464 -0.75499235 4.75973438 0 0 Z " fill="#867079" transform="translate(62,72)"/>
<path d="M0 0 C0.33 0 0.66 0 1 0 C1 1.98 1 3.96 1 6 C1.66 6 2.32 6 3 6 C3.33 5.34 3.66 4.68 4 4 C4.33 4.99 4.66 5.98 5 7 C5.66 7.33 6.32 7.66 7 8 C5.02 8 3.04 8 1 8 C1 9.32 1 10.64 1 12 C2.98 12 4.96 12 7 12 C7 12.33 7 12.66 7 13 C4.36 13 1.72 13 -1 13 C-1.33 12.01 -1.66 11.02 -2 10 C-3.32 10.33 -4.64 10.66 -6 11 C-6 10.34 -6 9.68 -6 9 C-8.64 8.67 -11.28 8.34 -14 8 C-14 7.67 -14 7.34 -14 7 C-12.58461283 6.66127487 -11.16762037 6.32925376 -9.75 6 C-8.56664062 5.7215625 -8.56664062 5.7215625 -7.359375 5.4375 C-5 5 -5 5 -1 5 C-0.67 3.35 -0.34 1.7 0 0 Z " fill="#E2DFE6" transform="translate(63,109)"/>
<path d="M0 0 C3 1 3 1 4 3 C6.34907875 3.68931344 6.34907875 3.68931344 9.0625 4.125 C9.98160156 4.29257813 10.90070313 4.46015625 11.84765625 4.6328125 C12.91306641 4.81457031 12.91306641 4.81457031 14 5 C14.33 4.34 14.66 3.68 15 3 C15.99 3.33 16.98 3.66 18 4 C18.33 3.01 18.66 2.02 19 1 C19 1.99 19 2.98 19 4 C19.66 4.33 20.32 4.66 21 5 C14.81818182 9 14.81818182 9 11.5625 9 C9 8 9 8 7.37109375 7.0625 C1.10234488 3.50279292 -4.8703998 3.21736586 -12 3 C-12 2.67 -12 2.34 -12 2 C-8.04 2 -4.08 2 0 2 C0 1.34 0 0.68 0 0 Z " fill="#F8F0DC" transform="translate(62,89)"/>
<path d="M0 0 C0.94875 0.04125 1.8975 0.0825 2.875 0.125 C3 3.5 3 3.5 2.875 7.125 C0.875 9.125 0.875 9.125 -1.625 9.4375 C-2.8625 9.2828125 -2.8625 9.2828125 -4.125 9.125 C-6.125 6.125 -6.125 6.125 -5.875 4.0625 C-4.56299106 0.67314357 -3.63314773 0.14532591 0 0 Z " fill="#838383" transform="translate(51.125,73.875)"/>
<path d="M0 0 C2.31 0.66 4.62 1.32 7 2 C7.33 3.65 7.66 5.3 8 7 C6.35 6.67 4.7 6.34 3 6 C3 6.66 3 7.32 3 8 C1.35 8 -0.3 8 -2 8 C-3.0625 6.1875 -3.0625 6.1875 -4 4 C-3.67 3.01 -3.34 2.02 -3 1 C-2.34 1.33 -1.68 1.66 -1 2 C-0.67 1.34 -0.34 0.68 0 0 Z " fill="#A594C0" transform="translate(97,108)"/>
<path d="M0 0 C0 0.66 0 1.32 0 2 C-0.60996826 1.98952637 -1.21993652 1.97905273 -1.84838867 1.96826172 C-4.62805007 1.92653379 -7.40764539 1.90062078 -10.1875 1.875 C-11.14720703 1.85824219 -12.10691406 1.84148437 -13.09570312 1.82421875 C-14.49272461 1.81455078 -14.49272461 1.81455078 -15.91796875 1.8046875 C-16.77156982 1.79421387 -17.6251709 1.78374023 -18.50463867 1.77294922 C-21.08500577 1.88494596 -21.08500577 1.88494596 -23.63012695 3.07470703 C-26 4 -26 4 -29 3 C-20.81810441 -2.57065232 -9.41114381 -2.59289278 0 0 Z " fill="#5C5CA0" transform="translate(106,100)"/>
<path d="M0 0 C0.98484375 0.00902344 1.9696875 0.01804687 2.984375 0.02734375 C4.10585937 0.04474609 4.10585937 0.04474609 5.25 0.0625 C5.25 1.0525 5.25 2.0425 5.25 3.0625 C3.89068359 3.11857422 3.89068359 3.11857422 2.50390625 3.17578125 C-4.79520269 3.56970141 -10.9488907 4.36550838 -17.75 7.0625 C-17.75 6.4025 -17.75 5.7425 -17.75 5.0625 C-16.50264433 4.4115741 -15.25198168 3.76698331 -14 3.125 C-13.30390625 2.76535156 -12.6078125 2.40570313 -11.890625 2.03515625 C-7.84823423 0.1983765 -4.4290094 -0.0527263 0 0 Z " fill="#FACF65" transform="translate(94.75,90.9375)"/>
<path d="M0 0 C0.66 0 1.32 0 2 0 C1.67 1.32 1.34 2.64 1 4 C1.5775 3.79375 2.155 3.5875 2.75 3.375 C5.51967567 2.91338739 6.64561267 3.57055055 9 5 C9.042721 6.66611905 9.04063832 8.33382885 9 10 C8 11 8 11 4.9375 11.0625 C3.968125 11.041875 2.99875 11.02125 2 11 C3.32 10.67 4.64 10.34 6 10 C6 9.01 6 8.02 6 7 C5.01 7.33 4.02 7.66 3 8 C3 7.34 3 6.68 3 6 C1.63875 6.309375 1.63875 6.309375 0.25 6.625 C-3.11027897 7.0127245 -4.24075815 6.80411967 -7 5 C-5.5459375 4.5978125 -5.5459375 4.5978125 -4.0625 4.1875 C-3.051875 3.795625 -2.04125 3.40375 -1 3 C-0.67 2.01 -0.34 1.02 0 0 Z " fill="#E3DFE8" transform="translate(78,111)"/>
<path d="M0 0 C1.89662394 1.17410054 3.76900659 2.38767106 5.625 3.625 C6.3125 6.75 6.3125 6.75 6.625 9.625 C6.068125 8.861875 5.51125 8.09875 4.9375 7.3125 C1.9839738 3.8800236 -0.11411897 1.93553977 -4.70703125 1.3046875 C-10.60172886 1.03955867 -13.86016022 1.82302966 -18.375 5.625 C-18.07988433 2.77221517 -17.56267059 1.78921177 -15.375 -0.125 C-10.06346705 -2.33813873 -5.30279435 -2.1603977 0 0 Z " fill="#AC854C" transform="translate(81.375,62.375)"/>
<path d="M0 0 C1.33417969 0.00386719 1.33417969 0.00386719 2.6953125 0.0078125 C3.57960938 0.00523438 4.46390625 0.00265625 5.375 0 C7.8203125 0.1328125 7.8203125 0.1328125 10.8203125 1.1328125 C10.8203125 2.1228125 10.8203125 3.1128125 10.8203125 4.1328125 C6.2003125 4.4628125 1.5803125 4.7928125 -3.1796875 5.1328125 C-3.8396875 3.8128125 -4.4996875 2.4928125 -5.1796875 1.1328125 C-4.5196875 1.1328125 -3.8596875 1.1328125 -3.1796875 1.1328125 C-2.1796875 0.1328125 -2.1796875 0.1328125 0 0 Z " fill="#B5B5B5" transform="translate(73.1796875,116.8671875)"/>
<path d="M0 0 C2.16015625 0.828125 2.16015625 0.828125 5.09765625 2.328125 C2.09765625 3.328125 2.09765625 3.328125 0.0234375 2.89453125 C-4.2225283 2.07254855 -8.40169195 2.22381219 -12.71484375 2.265625 C-14.04032227 2.27239258 -14.04032227 2.27239258 -15.39257812 2.27929688 C-17.56252934 2.29102634 -19.73244547 2.30896005 -21.90234375 2.328125 C-21.90234375 1.668125 -21.90234375 1.008125 -21.90234375 0.328125 C-16.33523969 -2.45542703 -6.0153782 -1.39252362 0 0 Z " fill="#6767A6" transform="translate(64.90234375,99.671875)"/>
<path d="M0 0 C0.66 0.33 1.32 0.66 2 1 C2.33333333 3 2.66666667 5 3 7 C3.66 7.33 4.32 7.66 5 8 C5.33 7.01 5.66 6.02 6 5 C6 5.99 6 6.98 6 8 C6.66 8 7.32 8 8 8 C8 7.34 8 6.68 8 6 C9.98 6 11.96 6 14 6 C13.67 6.99 13.34 7.98 13 9 C10.36 9 7.72 9 5 9 C4.67 9.99 4.34 10.98 4 12 C4 11.01 4 10.02 4 9 C1.69 9 -0.62 9 -3 9 C-2.01 8.67 -1.02 8.34 0 8 C-0.2784375 6.2984375 -0.2784375 6.2984375 -0.5625 4.5625 C-0.706875 3.386875 -0.85125 2.21125 -1 1 C-0.67 0.67 -0.34 0.34 0 0 Z " fill="#EAE7EE" transform="translate(92,108)"/>
<path d="M0 0 C2.62400522 2.37409996 4.44568209 4.81364829 6 8 C5.6875 10.3125 5.6875 10.3125 5 12 C3.68 11.67 2.36 11.34 1 11 C1 10.01 1 9.02 1 8 C0.34 7.67 -0.32 7.34 -1 7 C-0.67 6.34 -0.34 5.68 0 5 C-0.66 5 -1.32 5 -2 5 C-2 4.01 -2 3.02 -2 2 C-1.34 2 -0.68 2 0 2 C0 1.34 0 0.68 0 0 Z " fill="#828280" transform="translate(86,58)"/>
<path d="M0 0 C1.9375 0.6875 1.9375 0.6875 4 2 C4.75 4.625 4.75 4.625 5 7 C4.34 7 3.68 7 3 7 C3 7.99 3 8.98 3 10 C1.68 9.67 0.36 9.34 -1 9 C-0.01 9 0.98 9 2 9 C2 8.01 2 7.02 2 6 C0.35 6.33 -1.3 6.66 -3 7 C-2.25 2.25 -2.25 2.25 0 0 Z " fill="#626262" transform="translate(73,21)"/>
<path d="M0 0 C2.37570543 -0.0816082 4.74855841 -0.14077222 7.125 -0.1875 C7.79015625 -0.21263672 8.4553125 -0.23777344 9.140625 -0.26367188 C13.86902292 -0.33320714 16.95121479 0.59721625 21 3 C18.88929666 3.67844036 17.45892204 4.11681652 15.28125 3.5625 C12.27879969 2.82216979 9.33296145 2.6533073 6.25 2.4375 C5.07953125 2.35371094 3.9090625 2.26992187 2.703125 2.18359375 C1.81109375 2.12300781 0.9190625 2.06242187 0 2 C0 1.34 0 0.68 0 0 Z " fill="#FACB57" transform="translate(48,92)"/>
<path d="M0 0 C-0.33 0.66 -0.66 1.32 -1 2 C0.65 1.34 2.3 0.68 4 0 C4.33 0.99 4.66 1.98 5 3 C-4.41002278 4.33257403 -4.41002278 4.33257403 -9 3 C-9 2.01 -9 1.02 -9 0 C-2.25 -1.125 -2.25 -1.125 0 0 Z " fill="#B4B4B4" transform="translate(58,118)"/>
<path d="M0 0 C0.66 0.33 1.32 0.66 2 1 C-2.62 5.62 -7.24 10.24 -12 15 C-12.66 14.67 -13.32 14.34 -14 14 C-12.60919892 12.41224451 -11.21211596 10.82999061 -9.8125 9.25 C-8.64654297 7.92742188 -8.64654297 7.92742188 -7.45703125 6.578125 C-5.11544754 4.12113732 -2.69841735 2.05137234 0 0 Z " fill="#FCF0D0" transform="translate(39,26)"/>
<path d="M0 0 C5.41139241 -0.36075949 5.41139241 -0.36075949 7.9375 1.1875 C9 3 9 3 8.6875 5.6875 C8.460625 6.450625 8.23375 7.21375 8 8 C6.68 8 5.36 8 4 8 C4.33 7.01 4.66 6.02 5 5 C5.66 5.33 6.32 5.66 7 6 C7 5.01 7 4.02 7 3 C5.02 3.66 3.04 4.32 1 5 C0.67 3.35 0.34 1.7 0 0 Z " fill="#7E7E7E" transform="translate(94,74)"/>
<path d="M0 0 C0.66 0.33 1.32 0.66 2 1 C1.67 4.63 1.34 8.26 1 12 C1.66 12 2.32 12 3 12 C2.67 12.66 2.34 13.32 2 14 C1.34 14 0.68 14 0 14 C-1.38232443 15.62626404 -2.71937515 17.2925002 -4 19 C-5.32 18.67 -6.64 18.34 -8 18 C-7.1028125 17.6596875 -7.1028125 17.6596875 -6.1875 17.3125 C-3.18425398 15.51055239 -2.39357497 14.25167492 -1 11 C-0.46406266 7.341197 -0.18749883 3.69178732 0 0 Z " fill="#DEC291" transform="translate(88,70)"/>
<path d="M0 0 C1.65 0 3.3 0 5 0 C5.38218767 1.65614657 5.71395102 3.32457024 6 5 C5 6 5 6 2.4375 6.0625 C1.2309375 6.0315625 1.2309375 6.0315625 0 6 C0 4.02 0 2.04 0 0 Z " fill="#907AB2" transform="translate(72,109)"/>
<path d="M0 0 C8.96103896 0.8961039 8.96103896 0.8961039 12 3 C12.99 4.485 12.99 4.485 14 6 C15.32 5.67 16.64 5.34 18 5 C18 5.99 18 6.98 18 8 C12.58974863 7.39886096 10.78332024 6.78332024 7 3 C4.68234271 2.28072705 2.34904126 1.6090107 0 1 C0 0.67 0 0.34 0 0 Z " fill="#BAB8D2" transform="translate(59,98)"/>
<path d="M0 0 C0 1.65 0 3.3 0 5 C0.66 5 1.32 5 2 5 C2 3.35 2 1.7 2 0 C2.66 0 3.32 0 4 0 C4 1.65 4 3.3 4 5 C0.71303767 5.79953138 -0.71023192 6.09658936 -4 5 C-4 3.68 -4 2.36 -4 1 C-2 0 -2 0 0 0 Z " fill="#8D75B0" transform="translate(59,109)"/>
<path d="M0 0 C3.3 0 6.6 0 10 0 C9.01 0.66 8.02 1.32 7 2 C6.26656572 5.06556598 6.26656572 5.06556598 6 8 C5.34 8 4.68 8 4 8 C3.67 6.35 3.34 4.7 3 3 C2.01 3 1.02 3 0 3 C0 2.01 0 1.02 0 0 Z " fill="#9D9D9D" transform="translate(69,32)"/>
<path d="M0 0 C1.65 0 3.3 0 5 0 C5.625 1.875 5.625 1.875 6 4 C5.34 4.66 4.68 5.32 4 6 C2.68 6 1.36 6 0 6 C0 4.02 0 2.04 0 0 Z " fill="#846BAB" transform="translate(86,109)"/>
<path d="M0 0 C2 0 4 0 6 0 C6 1.98 6 3.96 6 6 C4 6 2 6 0 6 C0 4.02 0 2.04 0 0 Z " fill="#7D63A6" transform="translate(64,109)"/>
<path d="M0 0 C0.99 0 1.98 0 3 0 C3.66 1.65 4.32 3.3 5 5 C4 6 4 6 1.4375 6.0625 C0.2309375 6.0315625 0.2309375 6.0315625 -1 6 C-1.33 5.01 -1.66 4.02 -2 3 C-1.34 2.01 -0.68 1.02 0 0 Z " fill="#BEBEBE" transform="translate(48,77)"/>
<path d="M0 0 C0.66 0.33 1.32 0.66 2 1 C-1.96 4.96 -5.92 8.92 -10 13 C-10.66 12.67 -11.32 12.34 -12 12 C-8.39424999 7.41086363 -4.52615993 3.67832017 0 0 Z " fill="#D99D2F" transform="translate(34,20)"/>
<path d="M0 0 C0 0.66 0 1.32 0 2 C-1.89332534 2.81832722 -3.78977733 3.62942268 -5.6875 4.4375 C-6.74324219 4.88996094 -7.79898438 5.34242187 -8.88671875 5.80859375 C-11.61972529 6.85447455 -14.12042337 7.53520748 -17 8 C-14.12071475 5.72195761 -11.2169671 3.95965316 -7.9375 2.3125 C-7.08027344 1.87550781 -6.22304688 1.43851562 -5.33984375 0.98828125 C-3 0 -3 0 0 0 Z " fill="#ECE9F1" transform="translate(50,4)"/>
<path d="M0 0 C1.32 0 2.64 0 4 0 C4.33 1.98 4.66 3.96 5 6 C3.02 6 1.04 6 -1 6 C-0.67 4.02 -0.34 2.04 0 0 Z " fill="#856EAB" transform="translate(80,109)"/>
<path d="M0 0 C0.33 0.99 0.66 1.98 1 3 C1.66 3 2.32 3 3 3 C3.33 2.34 3.66 1.68 4 1 C4 1.66 4 2.32 4 3 C4.66 3.33 5.32 3.66 6 4 C4.02 4.33 2.04 4.66 0 5 C-0.33 6.32 -0.66 7.64 -1 9 C-0.34 9 0.32 9 1 9 C1 9.66 1 10.32 1 11 C0.01 10.67 -0.98 10.34 -2 10 C-1.54177532 6.53058454 -1.10868317 3.32604951 0 0 Z " fill="#A4A4A4" transform="translate(63,51)"/>
<path d="M0 0 C0.495 0.639375 0.99 1.27875 1.5 1.9375 C4.98806387 4.81515269 7.53461041 4.70230736 12 5 C12 5.33 12 5.66 12 6 C7.6835078 6.76173392 4.25566547 7.16063604 0 6 C0 4.02 0 2.04 0 0 Z " fill="#D0C7DD" transform="translate(42,110)"/>
<path d="M0 0 C1.98 0.495 1.98 0.495 4 1 C4.33 2.65 4.66 4.3 5 6 C3.02 6 1.04 6 -1 6 C-0.67 4.02 -0.34 2.04 0 0 Z " fill="#836CA9" transform="translate(100,109)"/>
<path d="M0 0 C1.05960938 0.00676758 1.05960938 0.00676758 2.140625 0.01367188 C3.88545275 0.02546125 5.630237 0.04339676 7.375 0.0625 C7.375 0.3925 7.375 0.7225 7.375 1.0625 C6.28832031 1.15337891 6.28832031 1.15337891 5.1796875 1.24609375 C0.20383467 1.67733433 -4.71180391 2.13297641 -9.625 3.0625 C-9.625 2.4025 -9.625 1.7425 -9.625 1.0625 C-6.55966836 -0.47016582 -3.35745728 -0.04026471 0 0 Z " fill="#38388C" transform="translate(52.625,98.9375)"/>
<path d="M0 0 C0.99 0.99 1.98 1.98 3 3 C2.34 4.32 1.68 5.64 1 7 C-0.32 6.67 -1.64 6.34 -3 6 C-2.42655063 3.13275314 -2.1385485 2.1385485 0 0 Z " fill="#9D9D9D" transform="translate(55,68)"/>
<path d="M0 0 C2.31 0 4.62 0 7 0 C7.33 0.99 7.66 1.98 8 3 C7.34 3 6.68 3 6 3 C6 2.34 6 1.68 6 1 C5.34 1 4.68 1 4 1 C4.33 1.99 4.66 2.98 5 4 C3.35 4 1.7 4 0 4 C0 2.68 0 1.36 0 0 Z " fill="#C6C6C6" transform="translate(64,117)"/>
<path d="M0 0 C0.66 0 1.32 0 2 0 C2 1.32 2 2.64 2 4 C3.98 3.34 5.96 2.68 8 2 C8 2.99 8 3.98 8 5 C7.01 5.33 6.02 5.66 5 6 C3.79117904 8.00016466 3.79117904 8.00016466 3 10 C3 8.35 3 6.7 3 5 C2.01 4.67 1.02 4.34 0 4 C0 2.68 0 1.36 0 0 Z " fill="#CCC5D8" transform="translate(84,111)"/>
<path d="M0 0 C1.32 0 2.64 0 4 0 C4 0.99 4 1.98 4 3 C3.34 3 2.68 3 2 3 C1.67 3.66 1.34 4.32 1 5 C1.99 5.33 2.98 5.66 4 6 C2.35 6 0.7 6 -1 6 C-1.33 5.34 -1.66 4.68 -2 4 C-1.0625 1.875 -1.0625 1.875 0 0 Z " fill="#C8C8C8" transform="translate(97,77)"/>
<path d="M0 0 C0.33 0.99 0.66 1.98 1 3 C1.66 3 2.32 3 3 3 C3 2.34 3 1.68 3 1 C4.98 1 6.96 1 9 1 C8.67 1.99 8.34 2.98 8 4 C5.36 4 2.72 4 0 4 C0 2.68 0 1.36 0 0 Z " fill="#E3DFE9" transform="translate(97,113)"/>
<path d="M0 0 C0.99 0 1.98 0 3 0 C3.042721 1.66611905 3.04063832 3.33382885 3 5 C2 6 2 6 -1.0625 6.0625 C-2.5165625 6.0315625 -2.5165625 6.0315625 -4 6 C-2.68 5.67 -1.36 5.34 0 5 C0 3.35 0 1.7 0 0 Z " fill="#EEEEEE" transform="translate(84,116)"/>
<path d="M0 0 C2.62187494 1.04874998 3.79371361 1.64931313 5.25 4.125 C5.4975 4.74375 5.745 5.3625 6 6 C6.66 6 7.32 6 8 6 C7.67 6.66 7.34 7.32 7 8 C3.83282717 6.41641358 2.26731682 5.54736301 0.6875 2.3125 C0.460625 1.549375 0.23375 0.78625 0 0 Z " fill="#B0AFAD" transform="translate(58,83)"/>
<path d="M0 0 C2.31 0 4.62 0 7 0 C7 0.99 7 1.98 7 3 C3.98968256 3.93423645 3.13349732 4.04449911 0 3 C0 2.01 0 1.02 0 0 Z " fill="#BBBBBB" transform="translate(49,118)"/>
<path d="M0 0 C0.433125 0.9590625 0.433125 0.9590625 0.875 1.9375 C1.82823451 4.15206079 1.82823451 4.15206079 4 5 C3.34 5.66 2.68 6.32 2 7 C-0.625 6.625 -0.625 6.625 -3 6 C-3 5.34 -3 4.68 -3 4 C-2.34 3.67 -1.68 3.34 -1 3 C-0.67 2.01 -0.34 1.02 0 0 Z " fill="#999896" transform="translate(59,61)"/>
<path d="M0 0 C0.33 0.99 0.66 1.98 1 3 C1.66 3 2.32 3 3 3 C3 4.32 3 5.64 3 7 C2.01 6.67 1.02 6.34 0 6 C-0.66 6.66 -1.32 7.32 -2 8 C-1.125 1.125 -1.125 1.125 0 0 Z " fill="#A7A7A7" transform="translate(68,36)"/>
<path d="M0 0 C2.64 0 5.28 0 8 0 C8 1.32 8 2.64 8 4 C6.68 3.67 5.36 3.34 4 3 C4 2.34 4 1.68 4 1 C2.68 0.67 1.36 0.34 0 0 Z " fill="#C3C3C3" transform="translate(97,117)"/>
<path d="M0 0 C0.66 0.66 1.32 1.32 2 2 C1.625 4.125 1.625 4.125 1 6 C-0.32 6 -1.64 6 -3 6 C-3 4.68 -3 3.36 -3 2 C-2.01 2 -1.02 2 0 2 C0 1.34 0 0.68 0 0 Z " fill="#A5A5A5" transform="translate(80,37)"/>
<path d="M0 0 C0.66 0.99 1.32 1.98 2 3 C0.68 4.32 -0.64 5.64 -2 7 C-2.99 6.34 -3.98 5.68 -5 5 C-3.35 3.35 -1.7 1.7 0 0 Z " fill="#8D7C83" transform="translate(84,81)"/>
<path d="M0 0 C0.33 0.99 0.66 1.98 1 3 C0.01 3 -0.98 3 -2 3 C-2 3.66 -2 4.32 -2 5 C-3.32 4.34 -4.64 3.68 -6 3 C-6 2.34 -6 1.68 -6 1 C-3.03 1.495 -3.03 1.495 0 2 C0 1.34 0 0.68 0 0 Z " fill="#59599D" transform="translate(75,78)"/>
<path d="M0 0 C0.66 0 1.32 0 2 0 C2 3.3 2 6.6 2 10 C1.67 10 1.34 10 1 10 C0.67 8.02 0.34 6.04 0 4 C-0.99 4.495 -0.99 4.495 -2 5 C-1.34 3.35 -0.68 1.7 0 0 Z " fill="#F1E2C0" transform="translate(58,70)"/>
<path d="M0 0 C0.66 1.32 1.32 2.64 2 4 C0.35 4.33 -1.3 4.66 -3 5 C-3.33 3.68 -3.66 2.36 -4 1 C-2.68 1.33 -1.36 1.66 0 2 C0 1.34 0 0.68 0 0 Z " fill="#656461" transform="translate(64,60)"/>
</svg>
